# xmcd
#
# Track frame offsets:
#	150
#	37411
#	70174
#	107310
#	144091
#	230720
#	252976
#	273956
#	312939
#
# Disc length: 4688 seconds
#
# Revision: 1
# Processed by: cddbd v1.5.2PL0 Copyright (c) Steve Scherf et al.
# Submitted via: audiograbber 1.83.01
#
DISCID=7b124e09
DTITLE=Grateful Dead - 79-10-28 Cape Cod Coliseum, South Yarmouth MA
DYEAR=1900
DGENRE=
TTITLE0=China Cat Sunflower
TTITLE1=I Know You Rider
TTITLE2=Samson and Delilah
TTITLE3=Ship Of Fools
TTITLE4=Playing In The Band
TTITLE5=Drums
TTITLE6=Space
TTITLE7=Stella Blue
TTITLE8=Sugar Magnolia
EXTD=
EXTT0=
EXTT1=
EXTT2=
EXTT3=
EXTT4=
EXTT5=
EXTT6=
EXTT7=
EXTT8=
PLAYORDER=
